<svg id="Layer_1" data-name="Layer 1" xmlns="http://www.w3.org/2000/svg" xmlns:xlink="http://www.w3.org/1999/xlink" viewBox="0 0 207.17 207.23"><defs><style>.cls-1{fill:url(#linear-gradient);}.cls-2{fill:none;stroke-miterlimit:10;stroke-width:41px;stroke:url(#linear-gradient-2);}</style><linearGradient id="linear-gradient" x1="266.87" y1="364.72" x2="370.22" y2="364.72" gradientUnits="userSpaceOnUse"><stop offset="0" stop-color="#fd60af"/><stop offset="0.8" stop-color="#a45ee3"/><stop offset="1" stop-color="#554dd4"/></linearGradient><linearGradient id="linear-gradient-2" x1="167.65" y1="281.1" x2="374.82" y2="281.1" xlink:href="#linear-gradient"/></defs><path class="cls-1" d="M370.22,377.62c0,3.92-4.3,7.11-9.61,7.11H266.87v-20.5q2,.12,4.08.12a82.36,82.36,0,0,0,53.48-19.64h8.18L366.45,372l2.25,1.8A5.89,5.89,0,0,1,370.22,377.62Z" transform="translate(-167.65 -177.5)"/><path class="cls-2" d="M354.32,281.1a82.83,82.83,0,0,1-18.79,52.66A84.33,84.33,0,0,1,325,344.45a82.8,82.8,0,0,1-53.77,19.74c-1.37,0-2.74,0-4.09-.11a83.09,83.09,0,1,1,87.17-83Z" transform="translate(-167.65 -177.5)"/></svg>