<svg id="Layer_1" data-name="Layer 1" xmlns="http://www.w3.org/2000/svg" viewBox="0 0 667.09 234.22"><defs><style>.cls-1{font-size:167.64px;font-family:Gotham-Bold, Gotham;font-weight:700;}.cls-2{fill:none;stroke:#000;stroke-miterlimit:10;stroke-width:41px;}</style></defs><text class="cls-1" transform="translate(212.45 205.22)">uatro</text><path d="M370.22,377.62c0,3.92-4.3,7.11-9.61,7.11H266.87v-20.5q2,.12,4.08.12a82.36,82.36,0,0,0,53.48-19.64h8.18L366.45,372l2.25,1.8A5.89,5.89,0,0,1,370.22,377.62Z" transform="translate(-167.65 -177.5)"/><path class="cls-2" d="M354.32,281.1a82.83,82.83,0,0,1-18.79,52.66A84.33,84.33,0,0,1,325,344.45a82.8,82.8,0,0,1-53.77,19.74c-1.37,0-2.74,0-4.09-.11a83.09,83.09,0,1,1,87.17-83Z" transform="translate(-167.65 -177.5)"/></svg>